<svg width="624" height="624" viewBox="0 0 624 624" fill="none" xmlns="http://www.w3.org/2000/svg">
<path d="M372.536 225.361H315.18C271.257 225.361 234.29 259.937 233.236 303.852C232.15 349.088 268.645 386.245 313.664 386.245H372.534C374.773 386.245 376.997 386.152 379.194 385.969C384.461 385.533 389.522 388.079 392.157 392.661C397.07 401.205 391.461 412.001 381.639 412.83C378.637 413.083 375.6 413.212 372.534 413.212H313.664C298.365 413.212 283.812 410.016 270.639 404.253L230.746 424.093C223.085 427.902 214.752 420.276 217.87 412.309L232.165 375.778C216.169 357.164 206.43 333.002 206.248 306.575C205.834 247.073 256.07 198.394 315.572 198.394H372.534C375.6 198.394 378.635 198.524 381.639 198.776C391.461 199.604 397.072 210.401 392.157 218.945C389.522 223.527 384.461 226.073 379.194 225.637C376.997 225.454 374.775 225.361 372.536 225.361Z" fill="#141414"/>
<path d="M355.103 245.126C388.928 245.126 417.486 272.799 417.251 306.624C417.147 321.647 411.611 335.383 402.518 345.965L410.644 366.732C412.417 371.261 407.679 375.596 403.324 373.431L380.646 362.152C373.157 365.428 364.884 367.245 356.187 367.245H318.243C301.382 367.245 286.116 360.416 275.068 349.368C264.114 338.415 257.294 323.314 257.179 306.624C256.944 272.799 285.502 245.126 319.327 245.126H355.103Z" fill="#2BB673"/>
</svg>
